<mxfile host="app.diagrams.net" modified="2023-12-10T12:47:40.288Z" agent="Mozilla/5.0 (Windows NT 10.0; Win64; x64) AppleWebKit/537.36 (KHTML, like Gecko) Chrome/120.0.0.0 Safari/537.36" etag="ibDbODeW-C6h8CGCVbFu" version="22.1.7" type="device">
  <diagram name="Страница — 1" id="Kt6jqAIu88hPu5RBo1W2">
    <mxGraphModel dx="1400" dy="723" grid="0" gridSize="10" guides="1" tooltips="1" connect="1" arrows="1" fold="1" page="1" pageScale="1" pageWidth="1169" pageHeight="1654" math="0" shadow="0">
      <root>
        <mxCell id="0" />
        <mxCell id="1" parent="0" />
        <mxCell id="ucYuG6menEjkq9Tot8bH-1" value="Администратор" style="shape=umlActor;verticalLabelPosition=bottom;verticalAlign=top;html=1;outlineConnect=0;" vertex="1" parent="1">
          <mxGeometry x="440" y="493.44" width="30" height="60" as="geometry" />
        </mxCell>
        <mxCell id="ucYuG6menEjkq9Tot8bH-3" value="Гость" style="shape=umlActor;verticalLabelPosition=bottom;verticalAlign=top;html=1;outlineConnect=0;" vertex="1" parent="1">
          <mxGeometry x="30" y="20" width="30" height="60" as="geometry" />
        </mxCell>
        <mxCell id="ucYuG6menEjkq9Tot8bH-4" value="Аутентификация" style="ellipse;whiteSpace=wrap;html=1;" vertex="1" parent="1">
          <mxGeometry x="110" y="80" width="100" height="40" as="geometry" />
        </mxCell>
        <mxCell id="ucYuG6menEjkq9Tot8bH-5" value="Регистрация" style="ellipse;whiteSpace=wrap;html=1;" vertex="1" parent="1">
          <mxGeometry x="110" y="20" width="100" height="40" as="geometry" />
        </mxCell>
        <mxCell id="ucYuG6menEjkq9Tot8bH-6" value="" style="endArrow=classic;html=1;rounded=0;exitX=1;exitY=0.3333333333333333;exitDx=0;exitDy=0;exitPerimeter=0;entryX=0;entryY=0.5;entryDx=0;entryDy=0;" edge="1" parent="1" source="ucYuG6menEjkq9Tot8bH-3" target="ucYuG6menEjkq9Tot8bH-5">
          <mxGeometry width="50" height="50" relative="1" as="geometry">
            <mxPoint x="50" y="290" as="sourcePoint" />
            <mxPoint x="100" y="240" as="targetPoint" />
          </mxGeometry>
        </mxCell>
        <mxCell id="ucYuG6menEjkq9Tot8bH-7" value="" style="endArrow=classic;html=1;rounded=0;entryX=0;entryY=0.5;entryDx=0;entryDy=0;exitX=1;exitY=0.3333333333333333;exitDx=0;exitDy=0;exitPerimeter=0;" edge="1" parent="1" source="ucYuG6menEjkq9Tot8bH-3" target="ucYuG6menEjkq9Tot8bH-4">
          <mxGeometry width="50" height="50" relative="1" as="geometry">
            <mxPoint x="30" y="290" as="sourcePoint" />
            <mxPoint x="80" y="240" as="targetPoint" />
          </mxGeometry>
        </mxCell>
        <mxCell id="ucYuG6menEjkq9Tot8bH-9" value="Управление состоянием аукциона" style="ellipse;whiteSpace=wrap;html=1;" vertex="1" parent="1">
          <mxGeometry x="230" y="480.94" width="120" height="63.75" as="geometry" />
        </mxCell>
        <mxCell id="ucYuG6menEjkq9Tot8bH-10" value="Заблокировать пользователя" style="ellipse;whiteSpace=wrap;html=1;" vertex="1" parent="1">
          <mxGeometry x="540" y="480.94" width="125" height="65.62" as="geometry" />
        </mxCell>
        <mxCell id="ucYuG6menEjkq9Tot8bH-11" value="" style="endArrow=block;dashed=1;endFill=0;endSize=12;html=1;rounded=0;exitX=1;exitY=0.5;exitDx=0;exitDy=0;entryX=0;entryY=0.5;entryDx=0;entryDy=0;" edge="1" parent="1" source="ucYuG6menEjkq9Tot8bH-10" target="ucYuG6menEjkq9Tot8bH-12">
          <mxGeometry width="160" relative="1" as="geometry">
            <mxPoint x="590" y="633.44" as="sourcePoint" />
            <mxPoint x="750" y="633.44" as="targetPoint" />
          </mxGeometry>
        </mxCell>
        <mxCell id="ucYuG6menEjkq9Tot8bH-12" value="&lt;font style=&quot;font-size: 12px;&quot;&gt;Посмотреть информацию о заблокированном пользователе&lt;/font&gt;" style="ellipse;whiteSpace=wrap;html=1;" vertex="1" parent="1">
          <mxGeometry x="740" y="480" width="110" height="67.5" as="geometry" />
        </mxCell>
        <mxCell id="ucYuG6menEjkq9Tot8bH-13" value="" style="endArrow=classic;html=1;rounded=0;entryX=0;entryY=0.5;entryDx=0;entryDy=0;exitX=1;exitY=0.3333333333333333;exitDx=0;exitDy=0;exitPerimeter=0;" edge="1" parent="1" source="ucYuG6menEjkq9Tot8bH-1" target="ucYuG6menEjkq9Tot8bH-10">
          <mxGeometry width="50" height="50" relative="1" as="geometry">
            <mxPoint x="470" y="393.44" as="sourcePoint" />
            <mxPoint x="520" y="453.44" as="targetPoint" />
          </mxGeometry>
        </mxCell>
        <mxCell id="ucYuG6menEjkq9Tot8bH-14" value="" style="endArrow=classic;html=1;rounded=0;entryX=1;entryY=0.5;entryDx=0;entryDy=0;exitX=0;exitY=0.3333333333333333;exitDx=0;exitDy=0;exitPerimeter=0;" edge="1" parent="1" source="ucYuG6menEjkq9Tot8bH-1" target="ucYuG6menEjkq9Tot8bH-9">
          <mxGeometry width="50" height="50" relative="1" as="geometry">
            <mxPoint x="330" y="413.44" as="sourcePoint" />
            <mxPoint x="380" y="473.44" as="targetPoint" />
          </mxGeometry>
        </mxCell>
        <mxCell id="ucYuG6menEjkq9Tot8bH-15" value="Менеджер" style="shape=umlActor;verticalLabelPosition=bottom;verticalAlign=top;html=1;" vertex="1" parent="1">
          <mxGeometry x="910" y="120" width="30" height="60" as="geometry" />
        </mxCell>
        <mxCell id="ucYuG6menEjkq9Tot8bH-16" value="Просматривать всех участников аукциона и их ставки" style="ellipse;whiteSpace=wrap;html=1;" vertex="1" parent="1">
          <mxGeometry x="940" y="20" width="125" height="65.62" as="geometry" />
        </mxCell>
        <mxCell id="ucYuG6menEjkq9Tot8bH-17" value="Слежка за корректностью аукциона" style="ellipse;whiteSpace=wrap;html=1;" vertex="1" parent="1">
          <mxGeometry x="1040" y="110" width="117" height="60" as="geometry" />
        </mxCell>
        <mxCell id="ucYuG6menEjkq9Tot8bH-19" value="" style="endArrow=classic;html=1;rounded=0;entryX=0;entryY=0.5;entryDx=0;entryDy=0;exitX=1;exitY=0.3333333333333333;exitDx=0;exitDy=0;exitPerimeter=0;" edge="1" parent="1" source="ucYuG6menEjkq9Tot8bH-15" target="ucYuG6menEjkq9Tot8bH-17">
          <mxGeometry width="50" height="50" relative="1" as="geometry">
            <mxPoint x="750" y="259.38" as="sourcePoint" />
            <mxPoint x="820" y="259.38" as="targetPoint" />
          </mxGeometry>
        </mxCell>
        <mxCell id="ucYuG6menEjkq9Tot8bH-21" value="" style="endArrow=classic;html=1;rounded=0;entryX=0.5;entryY=1;entryDx=0;entryDy=0;exitX=1;exitY=0.3333333333333333;exitDx=0;exitDy=0;exitPerimeter=0;" edge="1" parent="1" source="ucYuG6menEjkq9Tot8bH-15" target="ucYuG6menEjkq9Tot8bH-16">
          <mxGeometry width="50" height="50" relative="1" as="geometry">
            <mxPoint x="950" y="150" as="sourcePoint" />
            <mxPoint x="1050" y="150" as="targetPoint" />
          </mxGeometry>
        </mxCell>
        <mxCell id="ucYuG6menEjkq9Tot8bH-22" value="Пользователь" style="shape=umlActor;verticalLabelPosition=bottom;verticalAlign=top;html=1;" vertex="1" parent="1">
          <mxGeometry x="480" y="240" width="30" height="60" as="geometry" />
        </mxCell>
        <mxCell id="ucYuG6menEjkq9Tot8bH-23" value="Просмотреть аукционы" style="ellipse;whiteSpace=wrap;html=1;" vertex="1" parent="1">
          <mxGeometry x="280" y="224.38" width="110" height="70.62" as="geometry" />
        </mxCell>
        <mxCell id="ucYuG6menEjkq9Tot8bH-24" value="Просмотреть ставки на них" style="ellipse;whiteSpace=wrap;html=1;" vertex="1" parent="1">
          <mxGeometry x="85" y="226.88" width="125" height="65.62" as="geometry" />
        </mxCell>
        <mxCell id="ucYuG6menEjkq9Tot8bH-25" value="Use" style="endArrow=open;endSize=12;dashed=1;html=1;rounded=0;exitX=0;exitY=0.5;exitDx=0;exitDy=0;entryX=1;entryY=0.5;entryDx=0;entryDy=0;" edge="1" parent="1" source="ucYuG6menEjkq9Tot8bH-23" target="ucYuG6menEjkq9Tot8bH-24">
          <mxGeometry width="160" relative="1" as="geometry">
            <mxPoint x="150" y="410" as="sourcePoint" />
            <mxPoint x="310" y="410" as="targetPoint" />
          </mxGeometry>
        </mxCell>
        <mxCell id="ucYuG6menEjkq9Tot8bH-26" value="" style="endArrow=classic;html=1;rounded=0;entryX=1;entryY=0.5;entryDx=0;entryDy=0;exitX=0;exitY=0.3333333333333333;exitDx=0;exitDy=0;exitPerimeter=0;" edge="1" parent="1" source="ucYuG6menEjkq9Tot8bH-22" target="ucYuG6menEjkq9Tot8bH-23">
          <mxGeometry width="50" height="50" relative="1" as="geometry">
            <mxPoint x="440" y="410" as="sourcePoint" />
            <mxPoint x="350" y="410" as="targetPoint" />
          </mxGeometry>
        </mxCell>
        <mxCell id="ucYuG6menEjkq9Tot8bH-27" value="Поучаствовать в аукционе" style="ellipse;whiteSpace=wrap;html=1;" vertex="1" parent="1">
          <mxGeometry x="440" y="80" width="110" height="70.62" as="geometry" />
        </mxCell>
        <mxCell id="ucYuG6menEjkq9Tot8bH-28" value="Выставить товар на аукцион" style="ellipse;whiteSpace=wrap;html=1;" vertex="1" parent="1">
          <mxGeometry x="600" y="109.38" width="110" height="70.62" as="geometry" />
        </mxCell>
        <mxCell id="ucYuG6menEjkq9Tot8bH-29" value="" style="endArrow=classic;html=1;rounded=0;entryX=0.5;entryY=1;entryDx=0;entryDy=0;exitX=0.5;exitY=0;exitDx=0;exitDy=0;exitPerimeter=0;" edge="1" parent="1" source="ucYuG6menEjkq9Tot8bH-22" target="ucYuG6menEjkq9Tot8bH-27">
          <mxGeometry width="50" height="50" relative="1" as="geometry">
            <mxPoint x="710" y="310" as="sourcePoint" />
            <mxPoint x="620" y="310" as="targetPoint" />
          </mxGeometry>
        </mxCell>
        <mxCell id="ucYuG6menEjkq9Tot8bH-30" value="" style="endArrow=classic;html=1;rounded=0;entryX=0;entryY=0.5;entryDx=0;entryDy=0;exitX=0.5;exitY=0;exitDx=0;exitDy=0;exitPerimeter=0;" edge="1" parent="1" source="ucYuG6menEjkq9Tot8bH-22" target="ucYuG6menEjkq9Tot8bH-28">
          <mxGeometry width="50" height="50" relative="1" as="geometry">
            <mxPoint x="550" y="279.62" as="sourcePoint" />
            <mxPoint x="550" y="190.62" as="targetPoint" />
          </mxGeometry>
        </mxCell>
        <mxCell id="ucYuG6menEjkq9Tot8bH-31" value="Установить начальную цену" style="ellipse;whiteSpace=wrap;html=1;" vertex="1" parent="1">
          <mxGeometry x="650" y="224.38" width="110" height="70.62" as="geometry" />
        </mxCell>
        <mxCell id="ucYuG6menEjkq9Tot8bH-32" value="Установить время торгов" style="ellipse;whiteSpace=wrap;html=1;" vertex="1" parent="1">
          <mxGeometry x="650" y="310" width="110" height="70.62" as="geometry" />
        </mxCell>
        <mxCell id="ucYuG6menEjkq9Tot8bH-33" value="" style="endArrow=classic;html=1;rounded=0;entryX=0;entryY=0.5;entryDx=0;entryDy=0;exitX=1;exitY=0.3333333333333333;exitDx=0;exitDy=0;exitPerimeter=0;" edge="1" parent="1" source="ucYuG6menEjkq9Tot8bH-22" target="ucYuG6menEjkq9Tot8bH-31">
          <mxGeometry width="50" height="50" relative="1" as="geometry">
            <mxPoint x="505" y="250" as="sourcePoint" />
            <mxPoint x="610" y="155" as="targetPoint" />
          </mxGeometry>
        </mxCell>
        <mxCell id="ucYuG6menEjkq9Tot8bH-34" value="" style="endArrow=classic;html=1;rounded=0;entryX=0;entryY=0.5;entryDx=0;entryDy=0;exitX=1;exitY=0.3333333333333333;exitDx=0;exitDy=0;exitPerimeter=0;" edge="1" parent="1" source="ucYuG6menEjkq9Tot8bH-22" target="ucYuG6menEjkq9Tot8bH-32">
          <mxGeometry width="50" height="50" relative="1" as="geometry">
            <mxPoint x="505" y="250" as="sourcePoint" />
            <mxPoint x="610" y="155" as="targetPoint" />
          </mxGeometry>
        </mxCell>
        <mxCell id="ucYuG6menEjkq9Tot8bH-35" value="Use" style="endArrow=open;endSize=12;dashed=1;html=1;rounded=0;exitX=1;exitY=0.5;exitDx=0;exitDy=0;entryX=0;entryY=0.5;entryDx=0;entryDy=0;" edge="1" parent="1" source="ucYuG6menEjkq9Tot8bH-32" target="ucYuG6menEjkq9Tot8bH-36">
          <mxGeometry width="160" relative="1" as="geometry">
            <mxPoint x="410" y="370" as="sourcePoint" />
            <mxPoint x="340" y="370" as="targetPoint" />
          </mxGeometry>
        </mxCell>
        <mxCell id="ucYuG6menEjkq9Tot8bH-36" value="Закончить торги" style="ellipse;whiteSpace=wrap;html=1;" vertex="1" parent="1">
          <mxGeometry x="870" y="310" width="110" height="70.62" as="geometry" />
        </mxCell>
      </root>
    </mxGraphModel>
  </diagram>
</mxfile>
